<svg width="80" height="80" viewBox="0 0 80 80" fill="none" xmlns="http://www.w3.org/2000/svg">
<g clip-path="url(#clip0_7_82)">
<rect width="80" height="80" fill="#003D57"/>
<rect x="49" y="23" width="20" height="35" fill="#00FFF9"/>
<path d="M37.5801 23.2246C38.2441 23.2246 38.7129 23.3809 38.9863 23.6934C39.2793 23.9863 39.4258 24.4941 39.4258 25.2168V36.2617C39.4258 36.9453 39.2598 37.4336 38.9277 37.7266C38.5957 38.0195 38.0293 38.166 37.2285 38.166C36.4277 38.166 35.8613 38.0195 35.5293 37.7266C35.1973 37.4336 35.0312 36.9453 35.0312 36.2617V27.209H27.209V54.0156H34.123C34.7871 54.0156 35.2559 54.1719 35.5293 54.4844C35.8223 54.7773 35.9688 55.2852 35.9688 56.0078C35.9688 56.7305 35.8223 57.248 35.5293 57.5605C35.2559 57.8535 34.7871 58 34.123 58H15.9004C15.2363 58 14.7578 57.8535 14.4648 57.5605C14.1914 57.248 14.0547 56.7305 14.0547 56.0078C14.0547 55.2852 14.1914 54.7773 14.4648 54.4844C14.7578 54.1719 15.2363 54.0156 15.9004 54.0156H22.8145V27.209H14.9922V36.2617C14.9922 36.9453 14.8262 37.4336 14.4941 37.7266C14.1621 38.0195 13.5957 38.166 12.7949 38.166C11.9941 38.166 11.4277 38.0195 11.0957 37.7266C10.7637 37.4336 10.5977 36.9453 10.5977 36.2617V25.2168C10.5977 24.4941 10.7344 23.9863 11.0078 23.6934C11.3008 23.3809 11.7793 23.2246 12.4434 23.2246H37.5801Z" fill="#00FFF9"/>
</g>
<defs>
<clipPath id="clip0_7_82">
<rect width="80" height="80" fill="white"/>
</clipPath>
</defs>
</svg>
