<svg width="208" height="98" viewBox="0 0 208 98" fill="none" xmlns="http://www.w3.org/2000/svg">
<rect width="208" height="98" fill="#003D57"/>
<path d="M30.418 11.8164C30.8607 11.8164 31.1732 11.9206 31.3555 12.1289C31.5508 12.3242 31.6484 12.6628 31.6484 13.1445V20.5078C31.6484 20.9635 31.5378 21.2891 31.3164 21.4844C31.0951 21.6797 30.7174 21.7773 30.1836 21.7773C29.6497 21.7773 29.2721 21.6797 29.0508 21.4844C28.8294 21.2891 28.7188 20.9635 28.7188 20.5078V14.4727H23.5039V32.3438H28.1133C28.556 32.3438 28.8685 32.4479 29.0508 32.6562C29.2461 32.8516 29.3438 33.1901 29.3438 33.6719C29.3438 34.1536 29.2461 34.4987 29.0508 34.707C28.8685 34.9023 28.556 35 28.1133 35H15.9648C15.5221 35 15.2031 34.9023 15.0078 34.707C14.8255 34.4987 14.7344 34.1536 14.7344 33.6719C14.7344 33.1901 14.8255 32.8516 15.0078 32.6562C15.2031 32.4479 15.5221 32.3438 15.9648 32.3438H20.5742V14.4727H15.3594V20.5078C15.3594 20.9635 15.2487 21.2891 15.0273 21.4844C14.806 21.6797 14.4284 21.7773 13.8945 21.7773C13.3607 21.7773 12.9831 21.6797 12.7617 21.4844C12.5404 21.2891 12.4297 20.9635 12.4297 20.5078V13.1445C12.4297 12.6628 12.5208 12.3242 12.7031 12.1289C12.8984 11.9206 13.2174 11.8164 13.6602 11.8164H30.418ZM55.8086 16.9531C56.2513 16.9531 56.5638 17.0573 56.7461 17.2656C56.9414 17.4609 57.0391 17.7995 57.0391 18.2812C57.0391 18.763 56.9414 19.1081 56.7461 19.3164C56.5638 19.5117 56.2513 19.6094 55.8086 19.6094H54.5977L46.6094 35.9766C45.763 37.7083 44.9362 39.069 44.1289 40.0586C43.3216 41.0482 42.4102 41.7708 41.3945 42.2266C40.3919 42.6953 39.168 42.9557 37.7227 43.0078C37.2669 43.0208 36.9154 42.9036 36.668 42.6562C36.4206 42.4219 36.2969 41.9987 36.2969 41.3867C36.2969 40.5404 36.6419 40.0977 37.332 40.0586C38.582 39.9935 39.5716 39.7852 40.3008 39.4336C41.043 39.082 41.7201 38.4766 42.332 37.6172C42.957 36.7708 43.7188 35.4427 44.6172 33.6328L37.4688 19.6094H36.2383C35.7956 19.6094 35.4766 19.5117 35.2812 19.3164C35.099 19.1081 35.0078 18.763 35.0078 18.2812C35.0078 17.7995 35.099 17.4609 35.2812 17.2656C35.4766 17.0573 35.7956 16.9531 36.2383 16.9531H43.1523C43.5951 16.9531 43.9076 17.0573 44.0898 17.2656C44.2852 17.4609 44.3828 17.7995 44.3828 18.2812C44.3828 18.763 44.2852 19.1081 44.0898 19.3164C43.9076 19.5117 43.5951 19.6094 43.1523 19.6094H40.6523L46.1602 30.5859L51.4141 19.6094H49.6758C49.2331 19.6094 48.9141 19.5117 48.7188 19.3164C48.5365 19.1081 48.4453 18.763 48.4453 18.2812C48.4453 17.7995 48.5365 17.4609 48.7188 17.2656C48.9141 17.0573 49.2331 16.9531 49.6758 16.9531H55.8086ZM71.082 16.5234C72.6966 16.5234 74.1419 16.9076 75.418 17.6758C76.694 18.431 77.6966 19.5247 78.4258 20.957C79.1549 22.3763 79.5195 24.0495 79.5195 25.9766C79.5195 27.9036 79.1549 29.5833 78.4258 31.0156C77.6966 32.4349 76.694 33.5286 75.418 34.2969C74.1419 35.0521 72.6966 35.4297 71.082 35.4297C68.6341 35.4297 66.5703 34.3555 64.8906 32.207V39.9219H68.25C68.6927 39.9219 69.0052 40.0195 69.1875 40.2148C69.3828 40.4232 69.4805 40.7682 69.4805 41.25C69.4805 41.7318 69.3828 42.0703 69.1875 42.2656C69.0052 42.474 68.6927 42.5781 68.25 42.5781H59.9688C59.526 42.5781 59.207 42.474 59.0117 42.2656C58.8294 42.0703 58.7383 41.7318 58.7383 41.25C58.7383 40.7682 58.8294 40.4232 59.0117 40.2148C59.207 40.0195 59.526 39.9219 59.9688 39.9219H61.9609V19.6094H60.3594C59.9167 19.6094 59.5977 19.5117 59.4023 19.3164C59.2201 19.1081 59.1289 18.763 59.1289 18.2812C59.1289 17.7995 59.2201 17.4609 59.4023 17.2656C59.5977 17.0573 59.9167 16.9531 60.3594 16.9531H63.4648C63.9076 16.9531 64.2201 17.0573 64.4023 17.2656C64.5977 17.4609 64.6953 17.7995 64.6953 18.2812V19.8438C65.5156 18.776 66.4661 17.9557 67.5469 17.3828C68.6276 16.8099 69.806 16.5234 71.082 16.5234ZM70.8867 19.4141C69.7279 19.4141 68.6927 19.6745 67.7812 20.1953C66.8828 20.7161 66.1732 21.4714 65.6523 22.4609C65.1445 23.4505 64.8906 24.6224 64.8906 25.9766C64.8906 27.3307 65.1445 28.5026 65.6523 29.4922C66.1732 30.4818 66.8828 31.237 67.7812 31.7578C68.6927 32.2786 69.7279 32.5391 70.8867 32.5391C72.0456 32.5391 73.0417 32.2656 73.875 31.7188C74.7083 31.1589 75.3398 30.3841 75.7695 29.3945C76.2122 28.4049 76.4336 27.2656 76.4336 25.9766C76.4336 24.6875 76.2122 23.5482 75.7695 22.5586C75.3398 21.569 74.7083 20.8008 73.875 20.2539C73.0417 19.694 72.0456 19.4141 70.8867 19.4141ZM94.6953 16.9531C95.138 16.9531 95.4505 17.0573 95.6328 17.2656C95.8281 17.4609 95.9258 17.7995 95.9258 18.2812V32.3438H102.195C102.638 32.3438 102.951 32.4479 103.133 32.6562C103.328 32.8516 103.426 33.1901 103.426 33.6719C103.426 34.1536 103.328 34.4987 103.133 34.707C102.951 34.9023 102.638 35 102.195 35H86.8828C86.4401 35 86.1211 34.9023 85.9258 34.707C85.7435 34.4987 85.6523 34.1536 85.6523 33.6719C85.6523 33.1901 85.7435 32.8516 85.9258 32.6562C86.1211 32.4479 86.4401 32.3438 86.8828 32.3438H92.9961V19.6094H88.0547C87.612 19.6094 87.293 19.5117 87.0977 19.3164C86.9154 19.1081 86.8242 18.763 86.8242 18.2812C86.8242 17.7995 86.9154 17.4609 87.0977 17.2656C87.293 17.0573 87.612 16.9531 88.0547 16.9531H94.6953ZM94.0703 8.37891C94.7865 8.37891 95.2747 8.47656 95.5352 8.67188C95.7956 8.85417 95.9258 9.17969 95.9258 9.64844V12.1875C95.9258 12.6562 95.7956 12.9883 95.5352 13.1836C95.2747 13.3659 94.7865 13.457 94.0703 13.457C93.3542 13.457 92.8659 13.3659 92.6055 13.1836C92.3451 12.9883 92.2148 12.6562 92.2148 12.1875V9.64844C92.2148 9.17969 92.3451 8.85417 92.6055 8.67188C92.8659 8.47656 93.3542 8.37891 94.0703 8.37891ZM120.184 16.5234C121.368 16.5234 122.397 16.7839 123.27 17.3047C124.142 17.8125 124.812 18.5482 125.281 19.5117C125.75 20.4753 125.984 21.6016 125.984 22.8906V32.3438H127.586C128.029 32.3438 128.341 32.4479 128.523 32.6562C128.719 32.8516 128.816 33.1901 128.816 33.6719C128.816 34.1536 128.719 34.4987 128.523 34.707C128.341 34.9023 128.029 35 127.586 35H121.258C120.815 35 120.496 34.9023 120.301 34.707C120.118 34.4987 120.027 34.1536 120.027 33.6719C120.027 33.1901 120.118 32.8516 120.301 32.6562C120.496 32.4479 120.815 32.3438 121.258 32.3438H123.055V23.1836C123.055 22.0247 122.788 21.1068 122.254 20.4297C121.72 19.7526 120.932 19.4141 119.891 19.4141C118.784 19.4141 117.749 19.7331 116.785 20.3711C115.835 21.0091 115.073 21.888 114.5 23.0078C113.927 24.1276 113.641 25.3776 113.641 26.7578V32.3438H115.438C115.88 32.3438 116.193 32.4479 116.375 32.6562C116.57 32.8516 116.668 33.1901 116.668 33.6719C116.668 34.1536 116.57 34.4987 116.375 34.707C116.193 34.9023 115.88 35 115.438 35H109.109C108.667 35 108.348 34.9023 108.152 34.707C107.97 34.4987 107.879 34.1536 107.879 33.6719C107.879 33.1901 107.97 32.8516 108.152 32.6562C108.348 32.4479 108.667 32.3438 109.109 32.3438H110.711V19.6094H108.719C108.276 19.6094 107.957 19.5117 107.762 19.3164C107.579 19.1081 107.488 18.763 107.488 18.2812C107.488 17.7995 107.579 17.4609 107.762 17.2656C107.957 17.0573 108.276 16.9531 108.719 16.9531H112.215C112.658 16.9531 112.97 17.0573 113.152 17.2656C113.348 17.4609 113.445 17.7995 113.445 18.2812V20.625C114.305 19.2969 115.307 18.2812 116.453 17.5781C117.612 16.875 118.855 16.5234 120.184 16.5234ZM140.887 16.5234C142.163 16.5234 143.341 16.8099 144.422 17.3828C145.503 17.9557 146.453 18.776 147.273 19.8438V18.2812C147.273 17.7995 147.365 17.4609 147.547 17.2656C147.742 17.0573 148.061 16.9531 148.504 16.9531H151.609C152.052 16.9531 152.365 17.0573 152.547 17.2656C152.742 17.4609 152.84 17.7995 152.84 18.2812C152.84 18.763 152.742 19.1081 152.547 19.3164C152.365 19.5117 152.052 19.6094 151.609 19.6094H150.008V35.5859C150.008 37.1354 149.676 38.4635 149.012 39.5703C148.361 40.6901 147.41 41.543 146.16 42.1289C144.91 42.7148 143.406 43.0078 141.648 43.0078C140.398 43.0078 139.135 42.8971 137.859 42.6758C136.583 42.4674 135.392 42.1615 134.285 41.7578C133.777 41.5755 133.523 41.2305 133.523 40.7227C133.523 40.5143 133.576 40.2539 133.68 39.9414C133.914 39.2253 134.285 38.8672 134.793 38.8672C134.936 38.8672 135.079 38.8932 135.223 38.9453C136.238 39.3099 137.306 39.5964 138.426 39.8047C139.546 40.013 140.62 40.1172 141.648 40.1172C143.445 40.1172 144.799 39.6875 145.711 38.8281C146.622 37.9818 147.078 36.8164 147.078 35.332V31.4062C145.464 33.4375 143.4 34.4531 140.887 34.4531C139.272 34.4531 137.827 34.0951 136.551 33.3789C135.275 32.6497 134.272 31.6081 133.543 30.2539C132.814 28.8997 132.449 27.3112 132.449 25.4883C132.449 23.6654 132.814 22.0768 133.543 20.7227C134.272 19.3685 135.275 18.3333 136.551 17.6172C137.827 16.888 139.272 16.5234 140.887 16.5234ZM141.082 19.4141C139.923 19.4141 138.927 19.6745 138.094 20.1953C137.26 20.7031 136.622 21.4193 136.18 22.3438C135.75 23.2552 135.535 24.3034 135.535 25.4883C135.535 26.6732 135.75 27.7279 136.18 28.6523C136.622 29.5638 137.26 30.2799 138.094 30.8008C138.927 31.3086 139.923 31.5625 141.082 31.5625C142.241 31.5625 143.27 31.3216 144.168 30.8398C145.079 30.3581 145.789 29.6615 146.297 28.75C146.818 27.8255 147.078 26.7383 147.078 25.4883C147.078 24.2383 146.818 23.1576 146.297 22.2461C145.789 21.3216 145.079 20.6185 144.168 20.1367C143.27 19.6549 142.241 19.4141 141.082 19.4141Z" fill="#00FFF9"/>
<g clip-path="url(#clip0_1_73)">
<path d="M47.6523 56.8164C48.0951 56.8164 48.4076 56.9206 48.5898 57.1289C48.7852 57.3242 48.8828 57.6628 48.8828 58.1445C48.8828 58.6263 48.7852 58.9714 48.5898 59.1797C48.4076 59.375 48.0951 59.4727 47.6523 59.4727H42.9258V77.3438H52.5938V70.918C52.5938 70.4622 52.7044 70.1367 52.9258 69.9414C53.1471 69.7461 53.5247 69.6484 54.0586 69.6484C54.5924 69.6484 54.9701 69.7461 55.1914 69.9414C55.4128 70.1367 55.5234 70.4622 55.5234 70.918V78.6719C55.5234 79.1536 55.4258 79.4987 55.2305 79.707C55.0482 79.9023 54.7357 80 54.293 80H36.832C36.3893 80 36.0703 79.9023 35.875 79.707C35.6927 79.4987 35.6016 79.1536 35.6016 78.6719C35.6016 78.1901 35.6927 77.8516 35.875 77.6562C36.0703 77.4479 36.3893 77.3438 36.832 77.3438H39.9961V59.4727H36.832C36.3893 59.4727 36.0703 59.375 35.875 59.1797C35.6927 58.9714 35.6016 58.6263 35.6016 58.1445C35.6016 57.6628 35.6927 57.3242 35.875 57.1289C36.0703 56.9206 36.3893 56.8164 36.832 56.8164H47.6523ZM79.8008 61.9531C80.2435 61.9531 80.556 62.0573 80.7383 62.2656C80.9336 62.4609 81.0312 62.7995 81.0312 63.2812C81.0312 63.763 80.9336 64.1081 80.7383 64.3164C80.556 64.5117 80.2435 64.6094 79.8008 64.6094H78.5898L70.6016 80.9766C69.7552 82.7083 68.9284 84.069 68.1211 85.0586C67.3138 86.0482 66.4023 86.7708 65.3867 87.2266C64.3841 87.6953 63.1602 87.9557 61.7148 88.0078C61.2591 88.0208 60.9076 87.9036 60.6602 87.6562C60.4128 87.4219 60.2891 86.9987 60.2891 86.3867C60.2891 85.5404 60.6341 85.0977 61.3242 85.0586C62.5742 84.9935 63.5638 84.7852 64.293 84.4336C65.0352 84.082 65.7122 83.4766 66.3242 82.6172C66.9492 81.7708 67.7109 80.4427 68.6094 78.6328L61.4609 64.6094H60.2305C59.7878 64.6094 59.4688 64.5117 59.2734 64.3164C59.0911 64.1081 59 63.763 59 63.2812C59 62.7995 59.0911 62.4609 59.2734 62.2656C59.4688 62.0573 59.7878 61.9531 60.2305 61.9531H67.1445C67.5872 61.9531 67.8997 62.0573 68.082 62.2656C68.2773 62.4609 68.375 62.7995 68.375 63.2812C68.375 63.763 68.2773 64.1081 68.082 64.3164C67.8997 64.5117 67.5872 64.6094 67.1445 64.6094H64.6445L70.1523 75.5859L75.4062 64.6094H73.668C73.2253 64.6094 72.9062 64.5117 72.7109 64.3164C72.5286 64.1081 72.4375 63.763 72.4375 63.2812C72.4375 62.7995 72.5286 62.4609 72.7109 62.2656C72.9062 62.0573 73.2253 61.9531 73.668 61.9531H79.8008ZM99.9766 61.5234C100.992 61.5234 101.943 61.7839 102.828 62.3047C103.349 62.6172 103.609 63.0208 103.609 63.5156C103.609 63.75 103.551 64.0234 103.434 64.3359C103.16 65.0781 102.783 65.4492 102.301 65.4492C102.105 65.4492 101.923 65.3971 101.754 65.293C101.116 64.9414 100.432 64.7656 99.7031 64.7656C98.5312 64.7656 97.3529 65.1758 96.168 65.9961C94.9831 66.8034 94.0065 67.8841 93.2383 69.2383C92.4831 70.5924 92.1055 72.0312 92.1055 73.5547V77.3438H98.6875C99.1302 77.3438 99.4427 77.4479 99.625 77.6562C99.8203 77.8516 99.918 78.1901 99.918 78.6719C99.918 79.1536 99.8203 79.4987 99.625 79.707C99.4427 79.9023 99.1302 80 98.6875 80H86.1094C85.6667 80 85.3477 79.9023 85.1523 79.707C84.9701 79.4987 84.8789 79.1536 84.8789 78.6719C84.8789 78.1901 84.9701 77.8516 85.1523 77.6562C85.3477 77.4479 85.6667 77.3438 86.1094 77.3438H89.1758V64.6094H86.6953C86.2526 64.6094 85.9336 64.5117 85.7383 64.3164C85.556 64.1081 85.4648 63.763 85.4648 63.2812C85.4648 62.7995 85.556 62.4609 85.7383 62.2656C85.9336 62.0573 86.2526 61.9531 86.6953 61.9531H90.6797C91.1224 61.9531 91.4349 62.0573 91.6172 62.2656C91.8125 62.4609 91.9102 62.7995 91.9102 63.2812V67.2266C92.5352 66.0807 93.2904 65.0781 94.1758 64.2188C95.0612 63.3594 96.0052 62.6953 97.0078 62.2266C98.0104 61.7578 99 61.5234 99.9766 61.5234ZM118.688 61.9531C119.13 61.9531 119.443 62.0573 119.625 62.2656C119.82 62.4609 119.918 62.7995 119.918 63.2812V77.3438H126.188C126.63 77.3438 126.943 77.4479 127.125 77.6562C127.32 77.8516 127.418 78.1901 127.418 78.6719C127.418 79.1536 127.32 79.4987 127.125 79.707C126.943 79.9023 126.63 80 126.188 80H110.875C110.432 80 110.113 79.9023 109.918 79.707C109.736 79.4987 109.645 79.1536 109.645 78.6719C109.645 78.1901 109.736 77.8516 109.918 77.6562C110.113 77.4479 110.432 77.3438 110.875 77.3438H116.988V64.6094H112.047C111.604 64.6094 111.285 64.5117 111.09 64.3164C110.908 64.1081 110.816 63.763 110.816 63.2812C110.816 62.7995 110.908 62.4609 111.09 62.2656C111.285 62.0573 111.604 61.9531 112.047 61.9531H118.688ZM118.062 53.3789C118.779 53.3789 119.267 53.4766 119.527 53.6719C119.788 53.8542 119.918 54.1797 119.918 54.6484V57.1875C119.918 57.6562 119.788 57.9883 119.527 58.1836C119.267 58.3659 118.779 58.457 118.062 58.457C117.346 58.457 116.858 58.3659 116.598 58.1836C116.337 57.9883 116.207 57.6562 116.207 57.1875V54.6484C116.207 54.1797 116.337 53.8542 116.598 53.6719C116.858 53.4766 117.346 53.3789 118.062 53.3789ZM149 61.5234C149.534 61.5234 149.911 61.6211 150.133 61.8164C150.354 62.0117 150.465 62.3372 150.465 62.793V68.457C150.465 68.9128 150.354 69.2383 150.133 69.4336C149.911 69.6289 149.534 69.7266 149 69.7266C148.466 69.7266 148.089 69.6289 147.867 69.4336C147.646 69.2383 147.535 68.9128 147.535 68.457C147.535 67.6628 147.327 66.9596 146.91 66.3477C146.493 65.7357 145.868 65.2604 145.035 64.9219C144.215 64.5833 143.225 64.4141 142.066 64.4141C140.816 64.4141 139.697 64.694 138.707 65.2539C137.717 65.8138 136.943 66.5951 136.383 67.5977C135.823 68.6003 135.543 69.7266 135.543 70.9766C135.543 72.2396 135.803 73.3724 136.324 74.375C136.858 75.3646 137.6 76.1393 138.551 76.6992C139.514 77.2591 140.621 77.5391 141.871 77.5391C143.069 77.5391 144.228 77.3568 145.348 76.9922C146.48 76.6146 147.509 76.0742 148.434 75.3711C148.707 75.1628 148.961 75.0586 149.195 75.0586C149.573 75.0586 149.924 75.3255 150.25 75.8594C150.445 76.1849 150.543 76.4974 150.543 76.7969C150.543 77.2526 150.335 77.6302 149.918 77.9297C148.876 78.7109 147.646 79.3229 146.227 79.7656C144.807 80.2083 143.355 80.4297 141.871 80.4297C140.009 80.4297 138.362 80.0195 136.93 79.1992C135.51 78.3789 134.41 77.2526 133.629 75.8203C132.848 74.388 132.457 72.7734 132.457 70.9766C132.457 69.1797 132.854 67.5651 133.648 66.1328C134.443 64.7005 135.549 63.5742 136.969 62.7539C138.401 61.9336 140.035 61.5234 141.871 61.5234C143.03 61.5234 144.091 61.7383 145.055 62.168C146.031 62.5846 146.858 63.1836 147.535 63.9648V62.793C147.535 62.3372 147.646 62.0117 147.867 61.8164C148.089 61.6211 148.466 61.5234 149 61.5234ZM172.105 61.5234C172.639 61.5234 173.017 61.6211 173.238 61.8164C173.46 62.0117 173.57 62.3372 173.57 62.793V66.5039C173.57 66.9596 173.46 67.2852 173.238 67.4805C173.017 67.6758 172.639 67.7734 172.105 67.7734C171.663 67.7734 171.35 67.6042 171.168 67.2656C170.608 66.1979 169.794 65.4492 168.727 65.0195C167.659 64.5768 166.305 64.3555 164.664 64.3555C163.401 64.3555 162.411 64.5833 161.695 65.0391C160.992 65.4818 160.641 66.1068 160.641 66.9141C160.641 67.3307 160.771 67.6693 161.031 67.9297C161.305 68.1901 161.702 68.4049 162.223 68.5742C162.652 68.7174 163.147 68.8281 163.707 68.9062C164.28 68.9844 165.016 69.069 165.914 69.1602C167.177 69.3034 168.193 69.4401 168.961 69.5703C169.742 69.6875 170.478 69.8698 171.168 70.1172C172.21 70.4948 173.017 71.0417 173.59 71.7578C174.176 72.474 174.469 73.418 174.469 74.5898C174.469 75.7617 174.169 76.7904 173.57 77.6758C172.984 78.5482 172.118 79.2253 170.973 79.707C169.84 80.1888 168.479 80.4297 166.891 80.4297C165.484 80.4297 164.247 80.2344 163.18 79.8438C162.112 79.4531 161.181 78.8607 160.387 78.0664V79.1602C160.387 79.6159 160.276 79.9414 160.055 80.1367C159.833 80.332 159.456 80.4297 158.922 80.4297C158.388 80.4297 158.01 80.332 157.789 80.1367C157.568 79.9414 157.457 79.6159 157.457 79.1602V74.4727C157.457 74.0169 157.568 73.6914 157.789 73.4961C158.01 73.3008 158.388 73.2031 158.922 73.2031C159.195 73.2031 159.41 73.2682 159.566 73.3984C159.723 73.5156 159.859 73.7174 159.977 74.0039C160.445 75.2539 161.227 76.1654 162.32 76.7383C163.414 77.3112 164.872 77.5977 166.695 77.5977C168.206 77.5977 169.365 77.3242 170.172 76.7773C170.979 76.2305 171.383 75.5013 171.383 74.5898C171.383 74.1471 171.24 73.7826 170.953 73.4961C170.667 73.2096 170.257 72.9753 169.723 72.793C169.267 72.6497 168.74 72.5326 168.141 72.4414C167.555 72.3372 166.806 72.2396 165.895 72.1484C164.671 72.0182 163.648 71.8815 162.828 71.7383C162.008 71.5951 161.253 71.3867 160.562 71.1133C159.612 70.7357 158.87 70.2148 158.336 69.5508C157.815 68.8737 157.555 67.9948 157.555 66.9141C157.555 65.7812 157.848 64.8112 158.434 64.0039C159.033 63.1836 159.853 62.5651 160.895 62.1484C161.949 61.7318 163.141 61.5234 164.469 61.5234C165.732 61.5234 166.884 61.7122 167.926 62.0898C168.98 62.4674 169.885 62.9948 170.641 63.6719V62.793C170.641 62.3372 170.751 62.0117 170.973 61.8164C171.194 61.6211 171.572 61.5234 172.105 61.5234Z" fill="#00FFF9"/>
<rect x="182" y="58.5" width="16" height="26" fill="#00FFF9"/>
</g>
<defs>
<clipPath id="clip0_1_73">
<rect width="188" height="45" fill="white" transform="translate(10 49)"/>
</clipPath>
</defs>
</svg>
